{
    "asset" : {
        "copyright" : "Str",
        "generator" : "Khronos glTF Blender I/O v1.2.75",
        "version" : "2.0"
    },
    "scene" : 0,
    "scenes" : [
        {
            "name" : "Scene",
            "nodes" : [
                0,
                1,
                2
            ]
        }
    ],
    "nodes" : [
        {
            "name" : "Light",
            "rotation" : [
                0.16907575726509094,
                0.7558803558349609,
                -0.27217137813568115,
                0.570947527885437
            ],
            "translation" : [
                4.076245307922363,
                5.903861999511719,
                -1.0054539442062378
            ]
        },
        {
            "name" : "Camera",
            "rotation" : [
                0.483536034822464,
                0.33687159419059753,
                -0.20870360732078552,
                0.7804827094078064
            ],
            "translation" : [
                7.358891487121582,
                4.958309173583984,
                6.925790786743164
            ]
        },
        {
            "mesh" : 0,
            "name" : "AK47"
        }
    ],
    "meshes" : [
        {
            "name" : "AK47",
            "primitives" : [
                {
                    "attributes" : {
                        "POSITION" : 0,
                        "NORMAL" : 1
                    },
                    "indices" : 2
                }
            ]
        }
    ],
    "accessors" : [
        {
            "bufferView" : 0,
            "componentType" : 5126,
            "count" : 11704,
            "max" : [
                0.34273284673690796,
                1.4640612602233887,
                4.864837169647217
            ],
            "min" : [
                -0.210404634475708,
                -1.388100028038025,
                -4.9133124351501465
            ],
            "type" : "VEC3"
        },
        {
            "bufferView" : 1,
            "componentType" : 5126,
            "count" : 11704,
            "type" : "VEC3"
        },
        {
            "bufferView" : 2,
            "componentType" : 5123,
            "count" : 15765,
            "type" : "SCALAR"
        }
    ],
    "bufferViews" : [
        {
            "buffer" : 0,
            "byteLength" : 140448,
            "byteOffset" : 0
        },
        {
            "buffer" : 0,
            "byteLength" : 140448,
            "byteOffset" : 140448
        },
        {
            "buffer" : 0,
            "byteLength" : 31530,
            "byteOffset" : 280896
        }
    ],
    "buffers" : [
        {
            "byteLength" : 312428,
            "uri" : "data:application/octet-stream;base64,"
        }
    ]
}
