{
  "accessors": [
    {
      "bufferView": 2,
      "componentType": 5126,
      "count": 4277,
      "max": [
        9.349672317504883,
        17.77643394470215,
        2.4201009273529053
      ],
      "min": [
        -9.349672317504883,
        -0.0,
        -1.69576895236969
      ],
      "type": "VEC3"
    },
    {
      "bufferView": 2,
      "byteOffset": 51324,
      "componentType": 5126,
      "count": 4277,
      "max": [
        0.9999979734420776,
        0.999759316444397,
        1.0
      ],
      "min": [
        -0.9999979734420776,
        -0.9986037015914917,
        -1.0
      ],
      "type": "VEC3"
    },
    {
      "bufferView": 1,
      "componentType": 5126,
      "count": 4277,
      "max": [
        0.9991000294685364,
        0.9980000257492065
      ],
      "min": [
        0.0020000000949949026,
        0.0020000000949949026
      ],
      "type": "VEC2"
    },
    {
      "bufferView": 0,
      "componentType": 5125,
      "count": 17976,
      "type": "SCALAR"
    }
  ],
  "asset": {
    "extras": {
      "author": "Nyilonelycompany (https://sketchfab.com/Nyilonelycompany)",
      "license": "CC-BY-NC-4.0 (http://creativecommons.org/licenses/by-nc/4.0/)",
      "source": "https://sketchfab.com/3d-models/snoop-dogg-077d55f8e4b4443db35d26a5257b85a8",
      "title": "Snoop Dogg"
    },
    "generator": "Sketchfab-15.18.0",
    "version": "2.0"
  },
  "bufferViews": [
    {
      "buffer": 0,
      "byteLength": 71904,
      "name": "floatBufferViews",
      "target": 34963
    },
    {
      "buffer": 0,
      "byteLength": 34216,
      "byteOffset": 71904,
      "byteStride": 8,
      "name": "floatBufferViews",
      "target": 34962
    },
    {
      "buffer": 0,
      "byteLength": 102648,
      "byteOffset": 106120,
      "byteStride": 12,
      "name": "floatBufferViews",
      "target": 34962
    }
  ],
  "buffers": [
    {
      "byteLength": 208768,
      "uri": "scene.bin"
    }
  ],
  "images": [
    {
      "uri": "textures/Material__667.001_baseColor.png"
    }
  ],
  "materials": [
    {
      "doubleSided": true,
      "name": "Material__667.001",
      "pbrMetallicRoughness": {
        "baseColorTexture": {
          "index": 0
        },
        "metallicFactor": 0.0
      }
    }
  ],
  "meshes": [
    {
      "name": "snoop_dog.001_Material__667.001_0",
      "primitives": [
        {
          "attributes": {
            "NORMAL": 1,
            "POSITION": 0,
            "TEXCOORD_0": 2
          },
          "indices": 3,
          "material": 0,
          "mode": 4
        }
      ]
    }
  ],
  "nodes": [
    {
      "children": [
        1
      ],
      "matrix": [
        1.0,
        0.0,
        0.0,
        0.0,
        0.0,
        2.220446049250313e-16,
        -1.0,
        0.0,
        0.0,
        1.0,
        2.220446049250313e-16,
        0.0,
        0.0,
        0.0,
        0.0,
        1.0
      ],
      "name": "Sketchfab_model"
    },
    {
      "children": [
        2
      ],
      "matrix": [
        0.009999999776482582,
        0.0,
        0.0,
        0.0,
        0.0,
        0.0,
        0.009999999776482582,
        0.0,
        0.0,
        -0.009999999776482582,
        0.0,
        0.0,
        0.0,
        0.0,
        0.0,
        1.0
      ],
      "name": "e3b22b304ac4415bb997b80b572750c8.fbx"
    },
    {
      "children": [
        3
      ],
      "name": "RootNode"
    },
    {
      "children": [
        4
      ],
      "matrix": [
        14.011159896850586,
        0.0,
        0.0,
        0.0,
        0.0,
        14.0111598968504,
        2.28270796635059e-06,
        0.0,
        0.0,
        -2.28270796635059e-06,
        14.0111598968504,
        0.0,
        0.0,
        -1.862645149230957e-07,
        -1.862645149230957e-07,
        1.0
      ],
      "name": "snoop_dog.001"
    },
    {
      "mesh": 0,
      "name": "snoop_dog.001_Material__667.001_0"
    }
  ],
  "samplers": [
    {
      "magFilter": 9729,
      "minFilter": 9987,
      "wrapS": 10497,
      "wrapT": 10497
    }
  ],
  "scene": 0,
  "scenes": [
    {
      "name": "Sketchfab_Scene",
      "nodes": [
        0
      ]
    }
  ],
  "textures": [
    {
      "sampler": 0,
      "source": 0
    }
  ]
}
